<?xml version="1.0" encoding="UTF-8" standalone="no"?>
<svg
   xmlns:dc="http://purl.org/dc/elements/1.1/"
   xmlns:cc="http://creativecommons.org/ns#"
   xmlns:rdf="http://www.w3.org/1999/02/22-rdf-syntax-ns#"
   xmlns:svg="http://www.w3.org/2000/svg"
   xmlns="http://www.w3.org/2000/svg"
   xmlns:sodipodi="http://sodipodi.sourceforge.net/DTD/sodipodi-0.dtd"
   xmlns:inkscape="http://www.inkscape.org/namespaces/inkscape"
   width="512"
   height="512"
   viewBox="0 0 135.46667 135.46667"
   version="1.1"
   id="svg1858"
   inkscape:version="1.0.1 (c497b03c, 2020-09-10)"
   sodipodi:docname="shit_beer_logo.svg">
  <defs
     id="defs1852" />
  <sodipodi:namedview
     id="base"
     pagecolor="#ffffff"
     bordercolor="#666666"
     borderopacity="1.0"
     inkscape:pageopacity="0.0"
     inkscape:pageshadow="2"
     inkscape:zoom="0.49423567"
     inkscape:cx="255.73126"
     inkscape:cy="319.2711"
     inkscape:document-units="mm"
     inkscape:current-layer="g2676"
     inkscape:document-rotation="0"
     showgrid="false"
     units="px"
     width="200mm"
     inkscape:snap-global="false"
     inkscape:window-width="1440"
     inkscape:window-height="872"
     inkscape:window-x="0"
     inkscape:window-y="0"
     inkscape:window-maximized="0" />
  <metadata
     id="metadata1855">
    <rdf:RDF>
      <cc:Work
         rdf:about="">
        <dc:format>image/svg+xml</dc:format>
        <dc:type
           rdf:resource="http://purl.org/dc/dcmitype/StillImage" />
        <dc:title></dc:title>
      </cc:Work>
    </rdf:RDF>
  </metadata>
  <g
     inkscape:label="Layer 1"
     inkscape:groupmode="layer"
     id="layer1">
    <g
       id="g2676"
       transform="matrix(0.90311112,0,0,0.90311112,-0.62630912,-3.013262)">
      <path
         style="fill:#dd5555;stroke:none;stroke-width:0.240791;stroke-linecap:square;stroke-linejoin:round;fill-opacity:1"
         d="m 105.14505,37.525253 c -0.61713,-1.234613 -1.11546,-2.250784 -1.10739,-2.258155 0.008,-0.0073 2.14354,-1.07753 4.7455,-2.378126 l 4.73082,-2.364721 -0.46459,-0.758796 c -0.25554,-0.41734 -0.57702,-0.943002 -0.71442,-1.168143 -0.14015,-0.229642 -0.27942,-0.405432 -0.31726,-0.400434 -0.0371,0.0049 -2.0989,0.317544 -4.58179,0.694763 -2.48289,0.377217 -4.52797,0.672224 -4.54462,0.655573 -0.0166,-0.01665 0.0393,-1.087787 0.1243,-2.380297 l 0.15458,-2.350018 -1.60055,-4.502788 c -0.8803,-2.476532 -1.609769,-4.536813 -1.621034,-4.578401 -0.0138,-0.05086 0.526024,-0.569934 1.648854,-1.585521 1.44807,-1.309771 2.24699,-1.972068 6.02747,-4.996702 2.39697,-1.9177395 4.36637,-3.478559 4.37644,-3.4684885 0.01,0.010071 0.70361,1.2523979 1.5412,2.760727 0.83759,1.5083294 1.58575,2.8531845 1.66258,2.9885675 l 0.1397,0.24615 -1.94922,1.37982 -1.94924,1.379819 -2.66162,1.476301 c -1.4639,0.811965 -2.66767,1.480496 -2.67505,1.485625 -0.017,0.01178 1.80694,6.046027 1.83635,6.07543 0.0119,0.01194 1.56579,-0.630221 3.453,-1.427024 1.88721,-0.796802 3.43614,-1.443002 3.44205,-1.436002 0.0123,0.01457 3.95757,11.540115 3.98064,11.628908 0.009,0.03309 -2.6939,1.670217 -6.26041,3.792454 -3.45155,2.053826 -6.27974,3.734229 -6.28488,3.734229 -0.005,0 -0.51427,-1.010138 -1.13141,-2.24475 z"
         id="path2648" />
      <path
         style="fill:#dd5555;stroke:none;stroke-width:0.240791;stroke-linecap:square;stroke-linejoin:round;fill-opacity:1"
         d="m 127.10471,30.454333 c -2.71013,-1.837045 -4.92557,-3.358548 -4.9232,-3.381121 0.002,-0.02257 0.77667,-1.305428 1.72067,-2.850795 l 1.71637,-2.809755 0.13746,-2.295008 c 0.0756,-1.262255 0.13172,-2.391696 0.12471,-2.509869 l -0.0127,-0.214862 -0.93909,-0.540714 c -0.86084,-0.495667 -1.01729,-0.567054 -1.87784,-0.856848 l -0.93876,-0.316134 -1.94061,-1.28804 -1.94061,-1.28804 0.0252,-0.168553 c 0.036,-0.240488 1.89215,-8.5754103 1.91473,-8.5979928 0.0103,-0.010305 3.4201,1.1860703 7.57734,2.6586127 l 7.5586,2.6773498 1.37251,2.5999623 c 0.75488,1.42998 1.6145,3.003695 1.91025,3.497144 l 0.53774,0.89718 -0.10835,0.144475 c -0.0596,0.07946 -0.71797,0.957143 -1.46307,1.950405 l -1.35472,1.80593 -1.48257,0.668308 c -0.81543,0.367567 -1.49941,0.683456 -1.51998,0.701974 -0.0205,0.01852 0.80408,0.808819 1.83253,1.756224 l 1.86992,1.722556 0.32416,1.786087 0.32415,1.786084 -0.66378,0.994318 -0.66378,0.994319 -2.0708,1.910381 c -1.13894,1.050709 -2.08163,1.909509 -2.09488,1.908441 -0.0133,-0.0011 -2.24146,-1.504977 -4.95158,-3.342019 z"
         id="path2650" />
      <path
         style="fill:#dd5555;stroke:none;stroke-width:0.240791;stroke-linecap:square;stroke-linejoin:round;fill-opacity:1"
         d="m 142.33806,63.049483 c -2.56924,-0.434622 -6.16633,-1.040791 -7.99354,-1.34704 -1.82721,-0.306249 -3.32645,-0.561072 -3.33165,-0.566272 -0.005,-0.0052 0.27892,-1.558622 0.63136,-3.45205 0.6375,-3.42477 0.64311,-3.46113 1.0839,-7.02272 0.2437,-1.969067 0.43603,-3.586723 0.42741,-3.594787 -0.009,-0.0081 -1.1646,-0.03052 -2.56883,-0.0499 l -2.55313,-0.03524 -1.26735,-4.548902 c -0.69704,-2.501897 -1.25915,-4.557094 -1.24914,-4.567103 0.0101,-0.01001 2.73694,-0.312604 6.05983,-0.672426 l 6.04164,-0.654224 3.5606,-0.576023 c 2.06708,-0.334406 3.57201,-0.557174 3.58779,-0.531086 0.0635,0.105075 0.73637,4.105485 0.69645,4.140921 -0.0238,0.02111 -1.9936,0.585201 -4.37739,1.253541 -2.3838,0.668339 -4.33962,1.220598 -4.34625,1.227242 -0.007,0.0066 0.36414,0.692923 0.82398,1.525067 l 0.83606,1.512989 0.0317,0.553818 c 0.0663,1.159267 0.0883,1.348429 0.1567,1.348429 0.036,0 1.34854,-0.314567 2.91675,-0.699037 1.56822,-0.384471 2.87185,-0.69219 2.89696,-0.68382 0.0401,0.01337 1.44134,3.892328 1.41416,3.914739 -0.006,0.0048 -1.90861,0.902137 -4.2284,1.994057 l -4.2178,1.985312 -0.096,1.2592 c -0.0528,0.692562 -0.0873,1.269891 -0.0766,1.282956 0.0182,0.0224 9.73433,0.375909 10.51307,0.382507 l 0.36379,0.0031 -0.20008,1.625339 c -0.11004,0.893936 -0.31534,2.562615 -0.45622,3.708177 -0.21746,1.768176 -0.26765,2.082132 -0.33227,2.078155 -0.0418,-0.0025 -2.17824,-0.360287 -4.74747,-0.794909 z"
         id="path2652" />
      <path
         style="fill:#dd5555;stroke:none;stroke-width:0.240791;stroke-linecap:square;stroke-linejoin:round;fill-opacity:1"
         d="m 121.63967,67.725044 c -1.29257,-0.05963 -2.36261,-0.120902 -2.37786,-0.136154 -0.0152,-0.01526 0.0405,-1.345131 0.12388,-2.955289 0.0834,-1.610159 0.15586,-3.035918 0.16107,-3.168353 l 0.009,-0.24079 -1.05378,-1.481026 c -0.57958,-0.814566 -1.0665,-1.46848 -1.08204,-1.453144 -0.0155,0.01533 -0.31314,2.07552 -0.66132,4.578188 -0.34819,2.502665 -0.6434,4.560634 -0.65603,4.573259 -0.0197,0.01969 -5.42809,-1.129147 -5.46724,-1.16133 -0.008,-0.0065 0.42021,-2.443029 0.95112,-5.414691 0.53093,-2.971663 0.96532,-5.441177 0.96532,-5.48781 0,-0.04664 -0.85601,-3.103816 -1.90225,-6.793741 -1.04623,-3.689927 -1.90221,-6.73295 -1.90218,-6.762277 8e-5,-0.05958 5.37934,-0.781974 5.43186,-0.729454 0.0171,0.01708 0.69621,2.809245 1.50918,6.20481 l 1.47813,6.173754 1.19613,1.167715 c 0.65788,0.642243 1.20742,1.167769 1.22121,1.167835 0.0138,4.8e-5 0.10748,-1.338074 0.2082,-2.973645 l 0.18314,-2.973766 -0.31463,-4.308079 c -0.17304,-2.369442 -0.30852,-4.314173 -0.30107,-4.321623 0.022,-0.02196 4.24276,-0.294236 4.26362,-0.275042 0.0104,0.0096 0.40915,3.371594 0.88595,7.471017 l 0.8669,7.453496 -0.46858,5.803056 c -0.25773,3.191682 -0.48039,5.884325 -0.4948,5.983651 -0.0256,0.176568 -0.0306,0.180451 -0.22473,0.174224 -0.10919,-0.0035 -1.25608,-0.05515 -2.54865,-0.114791 z"
         id="path2654" />
      <path
         style="fill:#dd5555;stroke:none;stroke-width:0.240791;stroke-linecap:square;stroke-linejoin:round;fill-opacity:1"
         d="m 139.1837,95.429863 c -1.62895,-0.02415 -2.97588,-0.05865 -2.99318,-0.07668 -0.0173,-0.018 -1.7123,-3.428423 -3.76668,-7.578675 l -3.73524,-7.545923 0.78368,-7.961004 0.78369,-7.961002 0.21391,0.0045 c 0.29004,0.0061 12.87084,1.753806 12.91267,1.793789 0.0507,0.04844 2.20778,4.693423 2.18853,4.712673 -0.009,0.0093 -2.12744,0.0297 -4.70706,0.0454 -2.57961,0.0157 -4.76605,0.04322 -4.85876,0.06114 l -0.16856,0.0326 -0.65734,4.06722 c -0.36155,2.236972 -0.65249,4.072455 -0.64654,4.078845 0.006,0.0067 1.34197,-0.300428 2.96894,-0.681818 1.62697,-0.381397 2.96387,-0.687892 2.97089,-0.681105 0.0242,0.02333 1.46105,5.67252 1.44652,5.687025 -0.008,0.008 -1.30197,0.25452 -2.8755,0.54786 -1.57353,0.29334 -2.87169,0.544065 -2.8848,0.557183 -0.0131,0.01313 0.60251,1.369485 1.36806,3.014152 l 1.3919,2.990318 3.58778,-0.02903 c 1.97328,-0.01597 3.7449,-0.04117 3.93693,-0.0561 0.19203,-0.01493 0.34877,-0.009 0.34832,0.01313 -3.9e-4,0.02213 -0.53783,1.15629 -1.19415,2.520375 l -1.19332,2.480137 -1.12948,0.0045 c -0.62122,0.0023 -2.46226,-0.0153 -4.09121,-0.03945 z"
         id="path2658" />
      <path
         style="fill:#dd5555;stroke:none;stroke-width:0.240791;stroke-linecap:square;stroke-linejoin:round;fill-opacity:1"
         d="m 119.31856,95.81405 c -0.028,-0.08032 -5.89903,-18.101227 -6.06793,-18.62517 l -0.13196,-0.409342 1.52582,-2.504223 c 1.31576,-2.159465 1.54014,-2.502381 1.62983,-2.490838 0.12754,0.01642 4.52869,1.128481 4.55803,1.151704 0.0115,0.0091 -0.36471,0.981298 -0.8361,2.160359 l -0.85708,2.143745 2.86559,8.389935 c 1.57608,4.614465 2.86093,8.395133 2.85521,8.401493 -0.0196,0.02175 -5.43017,1.842532 -5.47533,1.842532 -0.0248,0 -0.0545,-0.02707 -0.0661,-0.06023 z"
         id="path2660" />
      <path
         style="fill:#dd5555;stroke:none;stroke-width:0.240791;stroke-linecap:square;stroke-linejoin:round;fill-opacity:1"
         d="m 126.57901,126.3851 c -1.51599,-0.13754 -2.76905,-0.26278 -2.78458,-0.27831 -0.0155,-0.0155 0.18307,-2.28329 0.44134,-5.03947 l 0.46959,-5.01121 -0.66715,-4.67314 c -0.65831,-4.61128 -0.66857,-4.67314 -0.77514,-4.67314 -0.0884,0 -1.72761,0.1907 -6.8943,0.80203 -0.13905,0.0164 -0.25282,0.0131 -0.25282,-0.007 0,-0.0682 1.50154,-4.62254 1.53618,-4.65944 0.0187,-0.02 1.73074,-0.2627 3.80451,-0.53948 l 3.7705,-0.50324 3.30622,-1.62323 c 1.81842,-0.892787 3.93669,-1.931237 4.70726,-2.307662 l 1.40103,-0.684428 1.07582,1.956218 c 0.5917,1.075912 1.10587,2.003412 1.14259,2.061112 0.0649,0.10209 -0.0366,0.17381 -3.77712,2.66679 -2.11415,1.40904 -3.86098,2.57732 -3.88186,2.5962 -0.0208,0.0189 0.30157,1.79861 0.71655,3.95495 l 0.75451,3.92064 -0.60934,5.97161 c -0.64742,6.34482 -0.64645,6.33608 -0.69556,6.32673 -0.0175,-0.003 -1.27224,-0.11859 -2.78823,-0.25614 z"
         id="path2662" />
      <path
         style="fill:#dd5555;stroke:none;stroke-width:0.240791;stroke-linecap:square;stroke-linejoin:round;fill-opacity:1"
         d="m 134.70737,136.84812 c 0.001,-0.0349 0.29017,-3.2817 0.64193,-7.21501 l 0.63956,-7.15149 -1.0745,-8.13872 c -0.59098,-4.4763 -1.07488,-8.18501 -1.07536,-8.24159 -7.5e-4,-0.0905 0.85913,-0.48511 7.14711,-3.28005 6.61531,-2.940432 7.14984,-3.169617 7.17328,-3.075575 0.0313,0.125475 2.53411,12.015175 2.53411,12.038315 0,0.009 -1.50683,1.45434 -3.34852,3.21152 -2.17267,2.07298 -3.33941,3.21858 -3.3226,3.26238 0.0143,0.0371 0.84124,1.56223 1.83776,3.3891 1.23641,2.26667 1.79617,3.33725 1.76251,3.3709 -0.0272,0.0272 -0.58624,0.43329 -1.24249,0.90258 l -1.19318,0.85325 -2.62478,-1.60389 c -1.44364,-0.88215 -2.63448,-1.5942 -2.64633,-1.58236 -0.0119,0.0118 -0.15434,2.14031 -0.31666,4.72992 l -0.29511,4.70837 -1.95041,1.65241 c -2.60446,2.20652 -2.64906,2.24309 -2.64632,2.16994 z"
         id="path2664" />
      <path
         id="path1943-3-0"
         style="fill:#dd5555;stroke:none;stroke-width:0.50101300000000004px;stroke-linecap:butt;stroke-linejoin:miter;stroke-opacity:1;fill-opacity:1"
         d="m 40.318524,3.3560556 -18.430894,7.3362294 -2.990807,5.052713 -2.728972,13.026584 0.470037,2.632135 -1.07453,-0.323663 -0.759434,-1.77102 -0.633172,-6.452768 3.543156,-8.730326 -2.783722,2.909985 -2.150923,5.820341 0.253269,6.57903 3.796052,5.820342 1.389999,1.126674 0.08269,-4.581187 1.251818,-6.212535 2.985964,-4.093272 -2.407915,5.827045 0.192559,5.056811 0.776194,6.338053 7.748165,6.280321 15.562624,5.440813 11.579972,1.030579 20.113271,-0.706172 -6.767866,2.585948 -12.905908,0.126262 -10.62798,-0.885696 -10.881621,-2.783721 -12.145357,-5.44081 -5.568191,-4.554372 -4.592732,-6.092977 -2.384079,-2.462295 -1.6265074,3.114835 -7.2118304,10.374339 1.0119581,1.012703 0.5069101,1.771391 2.7829776,5.946603 2.7837221,3.669419 0.4361437,-0.781036 0.3214283,-1.010469 0.3806482,-0.992218 -3.7956804,-7.844257 3.0373637,3.921944 4.3014734,2.910355 1.265227,-3.795679 0.252524,-4.808756 3.669418,2.150923 5.187542,2.530454 7.59136,3.417266 11.007512,3.794563 -6.704921,0.12738 1.011958,3.795679 -1.391488,2.782978 0.301688,2.365457 6.976812,1.412718 -1.759848,0.691648 -1.368768,1.201909 4.730541,1.465608 18.689004,0.778801 -1.591124,2.583714 -18.887152,-0.900594 -7.658029,-1.69988 -4.264228,-0.161644 4.577463,2.38445 9.49013,2.404189 18.367952,0.7464 -0.52814,1.278263 -11.13489,-0.37953 -1.644759,1.39149 4.682123,0.632797 9.966873,2.578875 -5.159236,1.722968 7.591362,4.30185 -1.789643,3.562897 -1.8984,-1.897282 1.644759,5.566702 5.333172,-4.701862 -6.579777,10.248072 -6.046421,-10.170605 2.024662,0.632055 -0.37953,-4.301475 -4.581561,-2.987827 -6.80995,-1.198928 -3.416151,1.138965 2.024661,2.277188 0.252524,-1.39149 2.709977,0.432045 2.604572,-0.0525 0.253269,1.01196 0.98961,1.072665 -5.44081,0.505792 -4.048949,-0.505792 -2.024661,-1.645133 -1.771392,-1.391482 -2.024289,1.011952 -0.126634,1.8984 -4.427735,-0.505792 -1.939369,-3.53235 3.078706,-0.101685 8.379474,-1.155728 -5.3179,-0.940072 -3.609826,-0.585495 -7.869213,-1.97475 L 16.635658,73.273153 5.2486162,61.759476 0.69350173,55.559604 1.4771453,61.711059 7.1701072,69.302418 15.39464,75.501545 26.148882,81.827683 9.9951721,80.55128 l 1.8983989,3.795683 0.126262,1.391482 -4.3018454,6.832305 -2.200087,4.059375 0.8871859,0.652538 6.3942935,3.737957 0.252524,-3.669797 -1.77102,-0.126263 2.208653,-3.232155 3.795681,-4.555117 5.820342,-3.542033 5.527964,2.024288 12.905909,5.693332 7.591362,2.656718 5.946602,4.934637 6.200245,4.30185 0.466686,2.88093 -9.11023,-5.56707 -5.060907,-4.301472 H 45.296002 L 35.93325,93.45719 31.631777,92.824018 23.660511,88.2689 l -4.681376,3.796058 -2.530453,3.036247 7.843885,4.808753 3.543529,1.391492 -5.440811,1.26523 8.338503,1.0425 -4.16292,0.72852 -8.484878,0.37431 -0.625351,-2.2716 -2.02466,-0.88569 v 4.17558 l -1.897654,-1.01307 -7.9708919,-4.933535 3.9219425,9.362375 9.3627524,0.63243 1.898028,-2.27718 2.373649,-0.30206 8.85696,0.63206 4.838181,1.44102 8.603318,1.64513 6.959306,1.13896 14.170392,0.8857 -1.175838,2.18258 -13.729405,-0.66483 21.490233,3.55358 -0.511007,1.38106 -18.594776,-2.65932 2.593027,1.62204 15.440832,2.41127 -2.090213,0.81865 -13.273895,-1.34828 -5.584576,-1.22389 0.885696,2.53046 11.454828,4.78305 -1.833219,1.46375 -16.707177,-3.46308 -30.112548,-6.07361 8.477057,4.17521 10.374338,3.79605 15.056832,3.41578 11.007511,2.40456 -1.011586,1.39149 -7.333623,-0.84249 -11.766945,-2.02354 -12.91075,-3.46047 2.277186,2.2783 8.350794,3.92194 22.141657,3.28989 17.840924,0.12589 11.007509,-3.03625 4.807643,-2.65783 3.16362,-6.32502 -10.881615,2.53046 -16.195798,-0.37991 -1.385903,-3.63738 12.839616,0.11471 13.35099,-2.14533 11.090939,-1.88612 1.68238,-1.80938 3.28988,-6.70491 2.14534,-4.90038 -27.961997,10.62797 -18.693103,-6.34214 1.941604,-1.08794 17.263247,2.96771 3.543157,-1.13934 6.326138,-2.40418 8.856964,-3.28989 8.98284,-3.92195 -3.16362,-2.656715 -7.29824,-5.09964 -4.312274,-13.840027 6.491134,10.355722 7.39768,5.67396 -3.66979,-9.110227 -4.55511,-14.54992 0.0682,-3.017624 0.2704,-3.994572 -4.860152,7.977598 -10.333372,11.013098 2.40792,-7.416308 -5.393513,5.778998 1.733775,-5.682908 -4.045597,4.815833 0.289027,-6.164115 12.555428,-5.15849 7.944824,-10.236159 -0.25699,-4.110405 1.51849,-5.314548 -2.40419,-4.048949 -2.53046,4.175211 -0.759432,-5.566699 -1.639912,-1.687218 -0.89538,-2.146825 -12.317805,6.522045 8.739262,-7.595459 4.115618,-6.799895 v -9.483057 l -4.473915,-5.547331 -2.862315,-0.537452 0.715485,3.400507 -0.894263,1.968047 -6.083662,-2.863427 6.083662,5.726484 -2.147197,1.431713 -5.00988,-3.400507 -0.716227,2.505128 -4.652325,3.757688 -3.578541,2.863057 0.17915,3.93684 -1.074158,1.073412 -1.252563,-2.325975 0.357927,-4.115992 0.138927,-0.129987 -2.508852,-0.09647 -3.720817,0.813813 -0.536706,3.114836 -0.505793,1.772136 -2.150922,0.126261 1.51775,-1.518867 -1.011958,-0.632055 0.632054,-1.012703 -0.136317,-0.834298 0.642483,-1.063356 -2.021681,-0.465195 0.01787,-1.028346 -0.521437,-0.03948 -0.944914,0.02905 -0.38847,0.744908 1.265226,1.138966 0.506165,0.632054 -1.114754,2.195245 -1.075277,-1.392233 -0.252522,-0.949387 -3.504049,-1.624645 -0.616413,-0.59332 -4.684356,0.374691 -3.178152,1.916649 -0.499833,1.416442 -0.885696,-0.759434 -0.633171,-2.150924 h -1.011586 l -0.759434,1.645132 v 1.77102 l 0.885696,1.012701 c 0,0 2.150633,0.506166 2.656715,0.506166 0.506121,0 2.969205,0.427578 2.969205,0.427578 l -0.885324,0.759434 c 0,0 -3.796595,-3.81e-4 -4.429225,0.126262 -0.632632,0.126491 -3.162416,-0.505857 -4.427735,-1.011958 -1.265205,-0.506101 -1.518495,-1.77102 -1.518495,-1.77102 h 1.898399 c 0,0 0.505172,-0.506352 0.25215,-1.138965 -0.253115,-0.632632 0.379903,-2.024661 0.379903,-2.024661 l 0.633172,-1.265226 1.39149,-1.39149 0.885324,0.253269 0.505792,-2.40419 2.150923,-2.784096 2.278302,-1.265227 -0.419384,1.557976 2.004923,0.0391 -1.265229,2.530453 -1.897653,1.644013 -1.518495,1.392234 1.140081,0.228313 5.847213,-1.001103 0.648015,-0.06449 3.193796,-0.02682 c 0,0 0.379709,0.190604 0.569482,0.50691 0.18978,0.316304 0.37953,0.505792 0.37953,0.505792 l 0.823125,-1.392233 c 0,0 2.164894,0.252844 2.417971,0.189579 0.253063,-0.06325 0.141907,-0.476742 0.141907,-0.476742 l -1.153865,-0.345264 0.642483,-0.934487 0.949015,0.06369 0.316213,-0.823125 -0.316213,-1.201536 c 0,0 -0.569483,-0.379689 -0.949015,-0.569483 -0.379608,-0.189774 -0.483816,-0.240232 -0.483818,-0.240232 l -1.983318,-0.903573 -4.785291,-1.184777 8.730699,0.505792 2.276812,1.012703 1.265599,0.506166 0.253268,1.89728 -0.506909,1.265228 v 0.459981 l 3.353216,0.206339 6.00843,0.128125 3.433657,-2.809423 0.179153,-3.757689 -1.61049,-2.683906 -6.620752,-4.831103 8.052464,1.967676 c 0,0 -7.157995,-5.367514 -8.231614,-5.725366 -1.073577,-0.35789 4.831107,0.894635 4.831107,0.894635 L 73.59954,8.9033882 77.536384,9.6184997 69.663071,6.5762942 61.968541,3.8931345 Z m 35.21554,25.3548184 -0.420498,0.343774 0.813813,-0.335581 z"
         sodipodi:nodetypes="cccccccccccccccccccccccccccccccccccccccccccccccccccccccccccccccccccccccccccccccccccccccccccccccccccccccccccccccccccccccccccccccccccccccccccccccccccccccccccccccccccccccccccccccccccccccccccccccccccccccccccccccccccccccccccccccccccccccccccccccccccccccccccccccccccccccccccccccccccccccscccccccccccccccccccccccsccccccccccccccccccccccccccccccccccccc" />
    </g>
  </g>
</svg>
